# xmcd CD database file
#
# Track frame offsets:
#	150
#	8577
#	23040
#	46635
#	70152
#	89265
#	108572
#	131520
#	154887
#	173892
#
# Disc length: 2589 seconds
#
# Revision: 0
# Processed by: cddbd v1.5PL3 Copyright (c) Steve Scherf et al.
# Submitted via: CDex 1.51
#
DISCID=720a1b0a
DTITLE=miyuki - ぜんぶ言ってしまおう
DYEAR=1994
DGENRE=Pop
TTITLE0=チャイム
TTITLE1=かわいいKISSをあげる
TTITLE2=思い出はダンボールにつめて
TTITLE3=傘なんかいらない
TTITLE4=ミニ・スカートで待つわ
TTITLE5=ライバルはあなただから
TTITLE6=いやよ！
TTITLE7=最後のプールサイド
TTITLE8=うしろ指さされて
TTITLE9=あたまなでて
EXTD=YEAR: 1994
EXTT0=
EXTT1=
EXTT2=
EXTT3=
EXTT4=
EXTT5=
EXTT6=
EXTT7=
EXTT8=
EXTT9=
PLAYORDER=
